<?xml version="1.0" encoding="UTF-8"?>
<svg xmlns="http://www.w3.org/2000/svg">
   <g transform="translate(50, 350)">
      <line x1="0"
            y1="-50"
            x2="500"
            y2="-50"
            stroke="black"
            stroke-dasharray="5,5"/>
      <text x="-40" y="-50">20%</text>
      <line x1="0"
            y1="-100"
            x2="500"
            y2="-100"
            stroke="black"
            stroke-dasharray="5,5"/>
      <text x="-40" y="-100">40%</text>
      <line x1="0"
            y1="-150"
            x2="500"
            y2="-150"
            stroke="black"
            stroke-dasharray="5,5"/>
      <text x="-40" y="-150">60%</text>
      <line x1="0"
            y1="-200"
            x2="500"
            y2="-200"
            stroke="black"
            stroke-dasharray="5,5"/>
      <text x="-40" y="-200">80%</text>
      <line x1="0"
            y1="-250"
            x2="500"
            y2="-250"
            stroke="black"
            stroke-dasharray="5,5"/>
      <text x="-40" y="-250">100%</text>
      <rect x="0" y="-250" height="250" width="20px" fill="#B8B8B8"/>
      <rect x="25" y="-250" height="250" width="20px" fill="#B8B8B8"/>
      <rect x="50" y="-250" height="250" width="20px" fill="#B8B8B8"/>
      <rect x="75" y="-250" height="250" width="20px" fill="#B8B8B8"/>
      <rect x="0"
            y="-60.3448275862068965"
            height="60.3448275862068965"
            width="20px"
            fill="blue"/>
      <rect x="0"
            y="-250"
            height="43.103448275862069"
            width="20px"
            fill="#33CCFF"/>
      <rect x="25" y="-31.25" height="31.25" width="20px" fill="blue"/>
      <rect x="25" y="-250" height="15.625" width="20px" fill="#33CCFF"/>
      <rect x="50" y="-93.75" height="93.75" width="20px" fill="blue"/>
      <rect x="50"
            y="-250"
            height="20.83333333333333325"
            width="20px"
            fill="#33CCFF"/>
      <rect x="75"
            y="-64.1025641025641025"
            height="64.1025641025641025"
            width="20px"
            fill="blue"/>
      <rect x="75"
            y="-250"
            height="7.1225071225071225"
            width="20px"
            fill="#33CCFF"/>
      <text x="10" y="12" style="writing-mode: tb;">Q1 2011</text>
      <text x="35" y="12" style="writing-mode: tb;">Q2 2011</text>
      <text x="60" y="12" style="writing-mode: tb;">Q3 2011</text>
      <text x="85" y="12" style="writing-mode: tb;">Q4 2011</text>
      <rect x="100" y="-250" height="250" width="20px" fill="#B8B8B8"/>
      <rect x="125" y="-250" height="250" width="20px" fill="#B8B8B8"/>
      <rect x="150" y="-250" height="250" width="20px" fill="#B8B8B8"/>
      <rect x="175" y="-250" height="250" width="20px" fill="#B8B8B8"/>
      <rect x="100"
            y="-83.33333333333333325"
            height="83.33333333333333325"
            width="20px"
            fill="blue"/>
      <rect x="100"
            y="-250"
            height="27.77777777777777775"
            width="20px"
            fill="#33CCFF"/>
      <rect x="125" y="-62.5" height="62.5" width="20px" fill="blue"/>
      <rect x="125"
            y="-250"
            height="22.3214285714285715"
            width="20px"
            fill="#33CCFF"/>
      <rect x="150"
            y="-86.5384615384615385"
            height="86.5384615384615385"
            width="20px"
            fill="blue"/>
      <rect x="150"
            y="-250"
            height="9.6153846153846155"
            width="20px"
            fill="#33CCFF"/>
      <rect x="175"
            y="-77.3195876288659795"
            height="77.3195876288659795"
            width="20px"
            fill="blue"/>
      <rect x="175"
            y="-250"
            height="34.36426116838487975"
            width="20px"
            fill="#33CCFF"/>
      <text x="110" y="12" style="writing-mode: tb;">Q1 2012</text>
      <text x="135" y="12" style="writing-mode: tb;">Q2 2012</text>
      <text x="160" y="12" style="writing-mode: tb;">Q3 2012</text>
      <text x="185" y="12" style="writing-mode: tb;">Q4 2012</text>
      <rect x="200" y="-250" height="250" width="20px" fill="#B8B8B8"/>
      <rect x="225" y="-250" height="250" width="20px" fill="#B8B8B8"/>
      <rect x="250" y="-250" height="250" width="20px" fill="#B8B8B8"/>
      <rect x="275" y="-250" height="250" width="20px" fill="#B8B8B8"/>
      <rect x="200"
            y="-31.9148936170212765"
            height="31.9148936170212765"
            width="20px"
            fill="blue"/>
      <rect x="200" y="-250" height="0" width="20px" fill="#33CCFF"/>
      <rect x="225"
            y="-32.608695652173913"
            height="32.608695652173913"
            width="20px"
            fill="blue"/>
      <rect x="225"
            y="-250"
            height="32.608695652173913"
            width="20px"
            fill="#33CCFF"/>
      <rect x="250"
            y="-112.903225806451613"
            height="112.903225806451613"
            width="20px"
            fill="blue"/>
      <rect x="250"
            y="-250"
            height="8.064516129032258"
            width="20px"
            fill="#33CCFF"/>
      <rect x="275"
            y="-24.11575562700964625"
            height="24.11575562700964625"
            width="20px"
            fill="blue"/>
      <rect x="275"
            y="-250"
            height="16.07717041800643075"
            width="20px"
            fill="#33CCFF"/>
      <text x="210" y="12" style="writing-mode: tb;">Q1 2013</text>
      <text x="235" y="12" style="writing-mode: tb;">Q2 2013</text>
      <text x="260" y="12" style="writing-mode: tb;">Q3 2013</text>
      <text x="285" y="12" style="writing-mode: tb;">Q4 2013</text>
      <rect x="300" y="-250" height="250" width="20px" fill="#B8B8B8"/>
      <rect x="325" y="-250" height="250" width="20px" fill="#B8B8B8"/>
      <rect x="350" y="-250" height="250" width="20px" fill="#B8B8B8"/>
      <rect x="375" y="-250" height="250" width="20px" fill="#B8B8B8"/>
      <rect x="300"
            y="-60.3448275862068965"
            height="60.3448275862068965"
            width="20px"
            fill="blue"/>
      <rect x="300" y="-250" height="0" width="20px" fill="#33CCFF"/>
      <rect x="325"
            y="-58.823529411764706"
            height="58.823529411764706"
            width="20px"
            fill="blue"/>
      <rect x="325"
            y="-250"
            height="29.411764705882353"
            width="20px"
            fill="#33CCFF"/>
      <rect x="350"
            y="-89.28571428571428575"
            height="89.28571428571428575"
            width="20px"
            fill="blue"/>
      <rect x="350"
            y="-250"
            height="17.85714285714285725"
            width="20px"
            fill="#33CCFF"/>
      <rect x="375"
            y="-71.2589073634204275"
            height="71.2589073634204275"
            width="20px"
            fill="blue"/>
      <rect x="375"
            y="-250"
            height="29.69121140142517825"
            width="20px"
            fill="#33CCFF"/>
      <text x="310" y="12" style="writing-mode: tb;">Q1 2014</text>
      <text x="335" y="12" style="writing-mode: tb;">Q2 2014</text>
      <text x="360" y="12" style="writing-mode: tb;">Q3 2014</text>
      <text x="385" y="12" style="writing-mode: tb;">Q4 2014</text>
      <rect x="400" y="-250" height="250" width="20px" fill="#B8B8B8"/>
      <rect x="425" y="-250" height="250" width="20px" fill="#B8B8B8"/>
      <rect x="450" y="-250" height="250" width="20px" fill="#B8B8B8"/>
      <rect x="475" y="-250" height="250" width="20px" fill="#B8B8B8"/>
      <rect x="400" y="-75" height="75" width="20px" fill="blue"/>
      <rect x="400" y="-250" height="12.5" width="20px" fill="#33CCFF"/>
      <rect x="425"
            y="-38.888888888888889"
            height="38.888888888888889"
            width="20px"
            fill="blue"/>
      <rect x="425"
            y="-250"
            height="16.66666666666666675"
            width="20px"
            fill="#33CCFF"/>
      <rect x="450"
            y="-69.4444444444444445"
            height="69.4444444444444445"
            width="20px"
            fill="blue"/>
      <rect x="450"
            y="-250"
            height="13.888888888888889"
            width="20px"
            fill="#33CCFF"/>
      <rect x="475" y="0" height="0" width="20px" fill="blue"/>
      <rect x="475" y="-250" height="0" width="20px" fill="#33CCFF"/>
      <text x="410" y="12" style="writing-mode: tb;">Q1 2015</text>
      <text x="435" y="12" style="writing-mode: tb;">Q2 2015</text>
      <text x="460" y="12" style="writing-mode: tb;">Q3 2015</text>
      <text x="485" y="12" style="writing-mode: tb;">Q4 2015</text>
      <line x1="0"
            y1="0"
            x2="500"
            y2="0"
            stroke="black"
            stroke-width="2px"/>
      <line x1="0"
            y1="0"
            x2="0"
            y2="-250"
            stroke="black"
            stroke-width="2px"/>
   </g>
</svg>
