<svg xmlns="http://www.w3.org/2000/svg">
   <g transform="translate(50, 350)">
      <text x="10" y="12" transform="rotate(90 9 9)">Q1 2011</text>
        <text x="35" y="12" transform="rotate(90 34 9)">Q2 2011</text>
        <text x="60" y="12" transform="rotate(90 59 9)">Q3 2011</text>
        <text x="85" y="12" transform="rotate(90 84 9)">Q4 2011</text>
        <text x="110" y="12" transform="rotate(90 109 9)">Q1 2012</text>
        <text x="135" y="12" transform="rotate(90 134 9)">Q2 2012</text>
        <text x="160" y="12" transform="rotate(90 159 9)">Q3 2012</text>
        <text x="185" y="12" transform="rotate(90 184 9)">Q4 2012</text>
        <text x="210" y="12" transform="rotate(90 209 9)">Q1 2013</text>
        <text x="235" y="12" transform="rotate(90 234 9)">Q2 2013</text>
        <text x="260" y="12" transform="rotate(90 259 9)">Q3 2013</text>
        <text x="285" y="12" transform="rotate(90 284 9)">Q4 2013</text>
        <text x="310" y="12" transform="rotate(90 309 9)">Q1 2014</text>
        <text x="335" y="12" transform="rotate(90 334 9)">Q2 2014</text>
        <text x="360" y="12" transform="rotate(90 359 9)">Q3 2014</text>
        <text x="385" y="12" transform="rotate(90 384 9)">Q4 2014</text>
        <text x="410" y="12" transform="rotate(90 409 9)">Q1 2015</text>
        <text x="435" y="12" transform="rotate(90 434 9)">Q2 2015</text>
        <text x="460" y="12" transform="rotate(90 459 9)">Q3 2015</text>
        <text x="485" y="12" transform="rotate(90 484 9)">Q4 2015</text>
      <line x1="0"
            y1="-50"
            x2="500"
            y2="-50"
            stroke="black"
            stroke-dasharray="5,5"/>
      <text x="-40" y="-50">20</text>
      <line x1="0"
            y1="-100"
            x2="500"
            y2="-100"
            stroke="black"
            stroke-dasharray="5,5"/>
      <text x="-40" y="-100">40</text>
      <line x1="0"
            y1="-150"
            x2="500"
            y2="-150"
            stroke="black"
            stroke-dasharray="5,5"/>
      <text x="-40" y="-150">60</text>
      <line x1="0"
            y1="-200"
            x2="500"
            y2="-200"
            stroke="black"
            stroke-dasharray="5,5"/>
      <text x="-40" y="-200">80</text>
      <line x1="0"
            y1="-250"
            x2="500"
            y2="-250"
            stroke="black"
            stroke-dasharray="5,5"/>
      <text x="-40" y="-250">100</text>
      <rect x="0" y="-250" height="250" width="20px" fill="#B8B8B8"/>
      <rect x="25" y="-250" height="250" width="20px" fill="#B8B8B8"/>
      <rect x="50" y="-250" height="250" width="20px" fill="#B8B8B8"/>
      <rect x="75" y="-250" height="250" width="20px" fill="#B8B8B8"/>
      <rect x="0"
            y="-68.96551724137931025"
            height="68.96551724137931025"
            width="20px"
            fill="blue"/>
      <rect x="0"
            y="-250"
            height="43.103448275862069"
            width="20px"
            fill="#33CCFF"/>
      <rect x="25" y="-31.25" height="31.25" width="20px" fill="blue"/>
      <rect x="25" y="-250" height="15.625" width="20px" fill="#33CCFF"/>
      <rect x="50"
            y="-104.16666666666666675"
            height="104.16666666666666675"
            width="20px"
            fill="blue"/>
      <rect x="50"
            y="-250"
            height="41.66666666666666675"
            width="20px"
            fill="#33CCFF"/>
      <rect x="75"
            y="-78.5489860039988575"
            height="78.5489860039988575"
            width="20px"
            fill="blue"/>
      <rect x="75"
            y="-250"
            height="7.1408169094544415"
            width="20px"
            fill="#33CCFF"/>
      <rect x="100" y="-250" height="250" width="20px" fill="#B8B8B8"/>
      <rect x="125" y="-250" height="250" width="20px" fill="#B8B8B8"/>
      <rect x="150" y="-250" height="250" width="20px" fill="#B8B8B8"/>
      <rect x="175" y="-250" height="250" width="20px" fill="#B8B8B8"/>
      <rect x="100"
            y="-104.16666666666666675"
            height="104.16666666666666675"
            width="20px"
            fill="blue"/>
      <rect x="100"
            y="-250"
            height="27.77777777777777775"
            width="20px"
            fill="#33CCFF"/>
      <rect x="125"
            y="-71.4285714285714285"
            height="71.4285714285714285"
            width="20px"
            fill="blue"/>
      <rect x="125"
            y="-250"
            height="22.3214285714285715"
            width="20px"
            fill="#33CCFF"/>
      <rect x="150"
            y="-105.76923076923076925"
            height="105.76923076923076925"
            width="20px"
            fill="blue"/>
      <rect x="150"
            y="-250"
            height="9.6153846153846155"
            width="20px"
            fill="#33CCFF"/>
      <rect x="175"
            y="-86.17718028266115125"
            height="86.17718028266115125"
            width="20px"
            fill="blue"/>
      <rect x="175"
            y="-250"
            height="34.4708721130644605"
            width="20px"
            fill="#33CCFF"/>
      <rect x="200" y="-250" height="250" width="20px" fill="#B8B8B8"/>
      <rect x="225" y="-250" height="250" width="20px" fill="#B8B8B8"/>
      <rect x="250" y="-250" height="250" width="20px" fill="#B8B8B8"/>
      <rect x="275" y="-250" height="250" width="20px" fill="#B8B8B8"/>
      <rect x="200"
            y="-42.55319148936170225"
            height="42.55319148936170225"
            width="20px"
            fill="blue"/>
      <rect x="200" y="-250" height="0" width="20px" fill="#33CCFF"/>
      <rect x="225"
            y="-38.04347826086956525"
            height="38.04347826086956525"
            width="20px"
            fill="blue"/>
      <rect x="225"
            y="-250"
            height="32.608695652173913"
            width="20px"
            fill="#33CCFF"/>
      <rect x="250"
            y="-112.903225806451613"
            height="112.903225806451613"
            width="20px"
            fill="blue"/>
      <rect x="250"
            y="-250"
            height="8.064516129032258"
            width="20px"
            fill="#33CCFF"/>
      <rect x="275"
            y="-40.309577555627217"
            height="40.309577555627217"
            width="20px"
            fill="blue"/>
      <rect x="275"
            y="-250"
            height="16.12383102225088675"
            width="20px"
            fill="#33CCFF"/>
      <rect x="300" y="-250" height="250" width="20px" fill="#B8B8B8"/>
      <rect x="325" y="-250" height="250" width="20px" fill="#B8B8B8"/>
      <rect x="350" y="-250" height="250" width="20px" fill="#B8B8B8"/>
      <rect x="375" y="-250" height="250" width="20px" fill="#B8B8B8"/>
      <rect x="300"
            y="-60.3448275862068965"
            height="60.3448275862068965"
            width="20px"
            fill="blue"/>
      <rect x="300" y="-250" height="0" width="20px" fill="#33CCFF"/>
      <rect x="325"
            y="-66.176470588235294"
            height="66.176470588235294"
            width="20px"
            fill="blue"/>
      <rect x="325"
            y="-250"
            height="36.76470588235294125"
            width="20px"
            fill="#33CCFF"/>
      <rect x="350"
            y="-89.28571428571428575"
            height="89.28571428571428575"
            width="20px"
            fill="blue"/>
      <rect x="350"
            y="-250"
            height="17.85714285714285725"
            width="20px"
            fill="#33CCFF"/>
      <rect x="375"
            y="-89.26446084265651025"
            height="89.26446084265651025"
            width="20px"
            fill="blue"/>
      <rect x="375"
            y="-250"
            height="29.7548202808855035"
            width="20px"
            fill="#33CCFF"/>
      <rect x="400" y="-250" height="250" width="20px" fill="#B8B8B8"/>
      <rect x="425" y="-250" height="250" width="20px" fill="#B8B8B8"/>
      <rect x="450" y="-250" height="250" width="20px" fill="#B8B8B8"/>
      <rect x="475" y="-250" height="250" width="20px" fill="#B8B8B8"/>
      <rect x="400" y="-75" height="75" width="20px" fill="blue"/>
      <rect x="400" y="-250" height="12.5" width="20px" fill="#33CCFF"/>
      <rect x="425"
            y="-55.5555555555555555"
            height="55.5555555555555555"
            width="20px"
            fill="blue"/>
      <rect x="425"
            y="-250"
            height="16.66666666666666675"
            width="20px"
            fill="#33CCFF"/>
      <rect x="450"
            y="-69.4444444444444445"
            height="69.4444444444444445"
            width="20px"
            fill="blue"/>
      <rect x="450"
            y="-250"
            height="13.888888888888889"
            width="20px"
            fill="#33CCFF"/>
      <rect x="475" y="0" height="0" width="20px" fill="blue"/>
      <rect x="475" y="-250" height="0" width="20px" fill="#33CCFF"/>
      <line x1="0"
            y1="0"
            x2="500"
            y2="0"
            stroke="black"
            stroke-width="2px"/>
      <line x1="0"
            y1="0"
            x2="0"
            y2="-250"
            stroke="black"
            stroke-width="2px"/>
   </g>
</svg>
