<?xml version="1.0" encoding="UTF-8"?>
<svg xmlns="http://www.w3.org/2000/svg">
   <g transform="translate(50, 350)">
      <line x1="0"
            y1="-50"
            x2="500"
            y2="-50"
            stroke="black"
            stroke-dasharray="5,5"/>
      <text x="-40" y="-50">20</text>
      <line x1="0"
            y1="-100"
            x2="500"
            y2="-100"
            stroke="black"
            stroke-dasharray="5,5"/>
      <text x="-40" y="-100">40</text>
      <line x1="0"
            y1="-150"
            x2="500"
            y2="-150"
            stroke="black"
            stroke-dasharray="5,5"/>
      <text x="-40" y="-150">60</text>
      <line x1="0"
            y1="-200"
            x2="500"
            y2="-200"
            stroke="black"
            stroke-dasharray="5,5"/>
      <text x="-40" y="-200">80</text>
      <line x1="0"
            y1="-250"
            x2="500"
            y2="-250"
            stroke="black"
            stroke-dasharray="5,5"/>
      <text x="-40" y="-250">100</text>
      <rect x="0" y="-250" height="250" width="20px" fill="#B8B8B8"/>
      <rect x="25" y="-250" height="250" width="20px" fill="#B8B8B8"/>
      <rect x="50" y="-250" height="250" width="20px" fill="#B8B8B8"/>
      <rect x="75" y="-250" height="250" width="20px" fill="#B8B8B8"/>
      <rect x="0"
            y="-39.47368421052631575"
            height="39.47368421052631575"
            width="20px"
            fill="blue"/>
      <rect x="0"
            y="-250"
            height="95.39473684210526325"
            width="20px"
            fill="#33CCFF"/>
      <rect x="25" y="-28.125" height="28.125" width="20px" fill="blue"/>
      <rect x="25" y="-250" height="87.5" width="20px" fill="#33CCFF"/>
      <rect x="50"
            y="-43.2098765432098765"
            height="43.2098765432098765"
            width="20px"
            fill="blue"/>
      <rect x="50"
            y="-250"
            height="98.765432098765432"
            width="20px"
            fill="#33CCFF"/>
      <rect x="75"
            y="-36.10709921119875575"
            height="36.10709921119875575"
            width="20px"
            fill="blue"/>
      <rect x="75"
            y="-250"
            height="105.543828463504055"
            width="20px"
            fill="#33CCFF"/>
      <text x="10" y="12" style="writing-mode: tb;">Q1 2011</text>
      <text x="35" y="12" style="writing-mode: tb;">Q2 2011</text>
      <text x="60" y="12" style="writing-mode: tb;">Q3 2011</text>
      <text x="85" y="12" style="writing-mode: tb;">Q4 2011</text>
      <rect x="100" y="-250" height="250" width="20px" fill="#B8B8B8"/>
      <rect x="125" y="-250" height="250" width="20px" fill="#B8B8B8"/>
      <rect x="150" y="-250" height="250" width="20px" fill="#B8B8B8"/>
      <rect x="175" y="-250" height="250" width="20px" fill="#B8B8B8"/>
      <rect x="100"
            y="-40.59829059829059825"
            height="40.59829059829059825"
            width="20px"
            fill="blue"/>
      <rect x="100"
            y="-250"
            height="87.60683760683760675"
            width="20px"
            fill="#33CCFF"/>
      <rect x="125"
            y="-67.20430107526881725"
            height="67.20430107526881725"
            width="20px"
            fill="blue"/>
      <rect x="125"
            y="-250"
            height="94.086021505376344"
            width="20px"
            fill="#33CCFF"/>
      <rect x="150"
            y="-49.019607843137255"
            height="49.019607843137255"
            width="20px"
            fill="blue"/>
      <rect x="150"
            y="-250"
            height="83.33333333333333325"
            width="20px"
            fill="#33CCFF"/>
      <rect x="175"
            y="-40.905372238887374"
            height="40.905372238887374"
            width="20px"
            fill="blue"/>
      <rect x="175"
            y="-250"
            height="102.26343059721843475"
            width="20px"
            fill="#33CCFF"/>
      <text x="110" y="12" style="writing-mode: tb;">Q1 2012</text>
      <text x="135" y="12" style="writing-mode: tb;">Q2 2012</text>
      <text x="160" y="12" style="writing-mode: tb;">Q3 2012</text>
      <text x="185" y="12" style="writing-mode: tb;">Q4 2012</text>
      <rect x="200" y="-250" height="250" width="20px" fill="#B8B8B8"/>
      <rect x="225" y="-250" height="250" width="20px" fill="#B8B8B8"/>
      <rect x="250" y="-250" height="250" width="20px" fill="#B8B8B8"/>
      <rect x="275" y="-250" height="250" width="20px" fill="#B8B8B8"/>
      <rect x="200"
            y="-48.50746268656716425"
            height="48.50746268656716425"
            width="20px"
            fill="blue"/>
      <rect x="200"
            y="-250"
            height="76.49253731343283575"
            width="20px"
            fill="#33CCFF"/>
      <rect x="225"
            y="-36.82170542635658925"
            height="36.82170542635658925"
            width="20px"
            fill="blue"/>
      <rect x="225"
            y="-250"
            height="81.39534883720930225"
            width="20px"
            fill="#33CCFF"/>
      <rect x="250" y="-42.5" height="42.5" width="20px" fill="blue"/>
      <rect x="250" y="-250" height="70" width="20px" fill="#33CCFF"/>
      <rect x="275"
            y="-52.267975638578311"
            height="52.267975638578311"
            width="20px"
            fill="blue"/>
      <rect x="275"
            y="-250"
            height="63.63057903826924825"
            width="20px"
            fill="#33CCFF"/>
      <text x="210" y="12" style="writing-mode: tb;">Q1 2013</text>
      <text x="235" y="12" style="writing-mode: tb;">Q2 2013</text>
      <text x="260" y="12" style="writing-mode: tb;">Q3 2013</text>
      <text x="285" y="12" style="writing-mode: tb;">Q4 2013</text>
      <rect x="300" y="-250" height="250" width="20px" fill="#B8B8B8"/>
      <rect x="325" y="-250" height="250" width="20px" fill="#B8B8B8"/>
      <rect x="350" y="-250" height="250" width="20px" fill="#B8B8B8"/>
      <rect x="375" y="-250" height="250" width="20px" fill="#B8B8B8"/>
      <rect x="300"
            y="-41.43646408839779"
            height="41.43646408839779"
            width="20px"
            fill="blue"/>
      <rect x="300"
            y="-250"
            height="78.729281767955801"
            width="20px"
            fill="#33CCFF"/>
      <rect x="325"
            y="-54.34782608695652175"
            height="54.34782608695652175"
            width="20px"
            fill="blue"/>
      <rect x="325"
            y="-250"
            height="54.34782608695652175"
            width="20px"
            fill="#33CCFF"/>
      <rect x="350"
            y="-48.65771812080536925"
            height="48.65771812080536925"
            width="20px"
            fill="blue"/>
      <rect x="350"
            y="-250"
            height="53.691275167785235"
            width="20px"
            fill="#33CCFF"/>
      <rect x="375"
            y="-29.4092933366943955"
            height="29.4092933366943955"
            width="20px"
            fill="blue"/>
      <rect x="375"
            y="-250"
            height="69.32190572220821775"
            width="20px"
            fill="#33CCFF"/>
      <text x="310" y="12" style="writing-mode: tb;">Q1 2014</text>
      <text x="335" y="12" style="writing-mode: tb;">Q2 2014</text>
      <text x="360" y="12" style="writing-mode: tb;">Q3 2014</text>
      <text x="385" y="12" style="writing-mode: tb;">Q4 2014</text>
      <rect x="400" y="-250" height="250" width="20px" fill="#B8B8B8"/>
      <rect x="425" y="-250" height="250" width="20px" fill="#B8B8B8"/>
      <rect x="450" y="-250" height="250" width="20px" fill="#B8B8B8"/>
      <rect x="475" y="-250" height="250" width="20px" fill="#B8B8B8"/>
      <rect x="400" y="-40" height="40" width="20px" fill="blue"/>
      <rect x="400" y="-250" height="52.5" width="20px" fill="#33CCFF"/>
      <rect x="425"
            y="-40.3846153846153845"
            height="40.3846153846153845"
            width="20px"
            fill="blue"/>
      <rect x="425"
            y="-250"
            height="57.69230769230769225"
            width="20px"
            fill="#33CCFF"/>
      <rect x="450"
            y="-41.66666666666666675"
            height="41.66666666666666675"
            width="20px"
            fill="blue"/>
      <rect x="450"
            y="-250"
            height="22.72727272727272725"
            width="20px"
            fill="#33CCFF"/>
      <rect x="475" y="0" height="0" width="20px" fill="blue"/>
      <rect x="475" y="-250" height="0" width="20px" fill="#33CCFF"/>
      <text x="410" y="12" style="writing-mode: tb;">Q1 2015</text>
      <text x="435" y="12" style="writing-mode: tb;">Q2 2015</text>
      <text x="460" y="12" style="writing-mode: tb;">Q3 2015</text>
      <text x="485" y="12" style="writing-mode: tb;">Q4 2015</text>
      <line x1="0"
            y1="0"
            x2="500"
            y2="0"
            stroke="black"
            stroke-width="2px"/>
      <line x1="0"
            y1="0"
            x2="0"
            y2="-250"
            stroke="black"
            stroke-width="2px"/>
   </g>
</svg>
