<?xml version="1.0" encoding="UTF-8"?>
<svg xmlns="http://www.w3.org/2000/svg" height="100%" width="100%">
   <g transform="translate(75, 600)">
      <line x1="0"
            y1="0"
            x2="1100"
            y2="0"
            stroke="black"
            stroke-width="2"/>
      <line x1="0"
            y1="0"
            x2="0"
            y2="-500"
            stroke="black"
            stroke-width="2"/>
      <text x="-50" y="-150">0.5</text>
      <text x="-50" y="-300">1.0</text>
      <text x="100" y="20" text-anchor="middle">2006</text>
      <circle cx="100" cy="-0" r="5" fill="blue"/>
      <line x1="100"
            y1="-0"
            x2="200"
            y2="-0"
            stroke="blue"
            stroke-width="3"/>
      <text x="200" y="20" text-anchor="middle">2007</text>
      <circle cx="200" cy="-0" r="5" fill="blue"/>
      <line x1="200"
            y1="-0"
            x2="300"
            y2="-0"
            stroke="blue"
            stroke-width="3"/>
      <text x="300" y="20" text-anchor="middle">2008</text>
      <circle cx="300" cy="-0" r="5" fill="blue"/>
      <line x1="300"
            y1="-0"
            x2="400"
            y2="-0"
            stroke="blue"
            stroke-width="3"/>
      <text x="400" y="20" text-anchor="middle">2009</text>
      <circle cx="400" cy="-0" r="5" fill="blue"/>
      <line x1="400"
            y1="-0"
            x2="500"
            y2="-0"
            stroke="blue"
            stroke-width="3"/>
      <text x="500" y="20" text-anchor="middle">2010</text>
      <circle cx="500" cy="-0" r="5" fill="blue"/>
      <line x1="500"
            y1="-0"
            x2="600"
            y2="-8.653846153846155"
            stroke="blue"
            stroke-width="3"/>
      <text x="600" y="20" text-anchor="middle">2011</text>
      <circle cx="600" cy="-8.653846153846155" r="5" fill="blue"/>
      <line x1="600"
            y1="-8.653846153846155"
            x2="700"
            y2="-104.08163265306122"
            stroke="blue"
            stroke-width="3"/>
      <text x="700" y="20" text-anchor="middle">2012</text>
      <circle cx="700" cy="-104.08163265306122" r="5" fill="blue"/>
      <line x1="700"
            y1="-104.08163265306122"
            x2="800"
            y2="-77.41935483870968"
            stroke="blue"
            stroke-width="3"/>
      <text x="800" y="20" text-anchor="middle">2013</text>
      <circle cx="800" cy="-77.41935483870968" r="5" fill="blue"/>
      <line x1="800"
            y1="-77.41935483870968"
            x2="900"
            y2="-137.593984962406"
            stroke="blue"
            stroke-width="3"/>
      <text x="900" y="20" text-anchor="middle">2014</text>
      <circle cx="900" cy="-137.593984962406" r="5" fill="blue"/>
      <line x1="900"
            y1="-137.593984962406"
            x2="1000"
            y2="-212.62135922330097"
            stroke="blue"
            stroke-width="3"/>
      <text x="1000" y="20" text-anchor="middle">2015</text>
      <circle cx="1000" cy="-212.62135922330097" r="5" fill="blue"/>
   </g>
</svg>
